/* XPM */
static char *_4de52708e4044b6d187c95b66bed5d7MkZjzkUz4tW45n1D[] = {
/* columns rows colors chars-per-pixel */
"32 32 29 1 ",
"  c #AB1F65",
". c #3DABEA",
"X c #CCE2E1",
"o c #FFDA45",
"O c white",
"+ c #D22F1E",
"@ c #38002C",
"# c #3368DC",
"$ c #800C53",
"% c #341E1A",
"& c #E6336A",
"* c #CCAC68",
"= c #46C657",
"- c #158968",
"; c #C9EC85",
": c #5BECF1",
"> c #FFF6AE",
", c #2C5B6D",
"< c #8CFFDE",
"1 c #45B8B3",
"2 c #683C34",
"3 c #FF8142",
"4 c #37446E",
"5 c #A36D3E",
"6 c #222A5C",
"7 c #566A89",
"8 c #8BABBF",
"9 c black",
"0 c None",
/* pixels */
"00000000000000000000000000000000",
"00000000000000000000000000000000",
"00000000000000000000000000000000",
"00000000000000009900000000990000",
"0000000000000009*900000009590000",
"000000000000009-9000000096999900",
"000000000099009-99990009699**900",
"00000000009*909,9659009++4499000",
"000009900009 99,699009 ++4900000",
"00009*9000009 97790009++ 9000000",
"0009*900000009$7790009++90000000",
"009-900000000097749999  90000000",
"009-9000000000094446644490000000",
"009-9009999900009446644779000000",
"009-,99,----900009999  777900000",
"0009----,99,-90000009  977900000",
"000099999009-9000009$  977900000",
"000000000009-9000009  $977900000",
"000000000009,9000009  9777900000",
"00000000999,99999997777779000000",
"00000009 ++++ 777777777790000000",
"0000009 +666@3 77779  9900000000",
"0000009+67777@3 +99++ 9000000000",
"0000009+67777@3 +++++$9000000000",
"0000009+67777@39 +++$90000000000",
"0000009+@7777@399999900000000000",
"0000009 3@@@@3+90000000000000000",
"00000009 3333+900000000000000000",
"00000000999999000000000000000000",
"00000000000000000000000000000000",
"00000000000000000000000000000000",
"00000000000000000000000000000000"
};
