/* XPM */
static char *exit32[] = {
/* columns rows colors chars-per-pixel */
"32 32 140 2 ",
"   c #000000",
".  c #08040C",
"X  c #100719",
"o  c #11081A",
"O  c #0C0523",
"+  c #0D042C",
"@  c #1A0D27",
"#  c #11072E",
"$  c #140A2C",
"%  c #1A0C2E",
"&  c #0C0434",
"*  c #0D043A",
"=  c #110633",
"-  c #150934",
";  c #1A0C35",
":  c #12063B",
">  c #16093B",
",  c #1B0C3C",
"<  c #1F103B",
"1  c #200F3E",
"2  c #231134",
"3  c #22103E",
"4  c #0E0442",
"5  c #0F0548",
"6  c #120644",
"7  c #160942",
"8  c #1C0C43",
"9  c #11064C",
"0  c #16084D",
"q  c #1D0C4A",
"w  c #130652",
"e  c #170953",
"r  c #1C0B53",
"t  c #1D0C5B",
"y  c #210F45",
"u  c #220F4C",
"i  c #231143",
"p  c #2C1541",
"a  c #25114C",
"s  c #29144B",
"d  c #32194A",
"f  c #220E51",
"g  c #230F5B",
"h  c #251054",
"j  c #2A1354",
"k  c #2F1857",
"l  c #24115D",
"z  c #2C145B",
"x  c #311856",
"c  c #341A5E",
"v  c #1F0C61",
"b  c #251163",
"n  c #2C1363",
"m  c #2D146A",
"M  c #311561",
"N  c #351964",
"B  c #391C65",
"V  c #321669",
"C  c #34196C",
"Z  c #3A1C6C",
"A  c #2E1570",
"S  c #341772",
"D  c #341973",
"F  c #3C1B73",
"G  c #3D1C7B",
"H  c #3E2069",
"J  c #401F6E",
"K  c #411F74",
"L  c #411E7A",
"P  c #40216F",
"I  c #422173",
"U  c #4D2376",
"Y  c #44227C",
"T  c #49257B",
"R  c #4C287F",
"E  c #512877",
"W  c #431D84",
"Q  c #451E88",
"!  c #462182",
"~  c #4B2583",
"^  c #4C238B",
"/  c #4D298E",
"(  c #532A83",
")  c #5B2B85",
"_  c #50278C",
"`  c #52298D",
"'  c #5C2A8A",
"]  c #4E2392",
"[  c #4D2098",
"{  c #532694",
"}  c #542A93",
"|  c #592C96",
" . c #53249E",
".. c #562A9A",
"X. c #5B2C9C",
"o. c #5D309D",
"O. c #62349E",
"+. c #6A329D",
"@. c #5626A3",
"#. c #5826A6",
"$. c #5D2AA4",
"%. c #5B26AD",
"&. c #602EA1",
"*. c #632EAC",
"=. c #6333A3",
"-. c #6A39A5",
";. c #6634AA",
":. c #6836AC",
">. c #6B3AAA",
",. c #642CB2",
"<. c #692FB7",
"1. c #672CBB",
"2. c #692EBD",
"3. c #6B33B3",
"4. c #6D39B2",
"5. c #6D31BB",
"6. c #7435B5",
"7. c #723CB4",
"8. c #7335B9",
"9. c #743ABC",
"0. c #7C3DBC",
"q. c #7B42BF",
"w. c #682CC0",
"e. c #7333C5",
"r. c #7935C6",
"t. c #7C3BC3",
"y. c #7533CA",
"u. c #7934CB",
"i. c #7D3ACA",
"p. c #7C36D4",
"a. c #7E44C4",
"s. c #7E42C8",
"d. c #833ECB",
"f. c #893ECB",
"g. c #8239D4",
"h. c #8C3FDD",
"j. c #8044C3",
"k. c #8B43D2",
"l. c #8E49D7",
"z. c #9246D7",
/* pixels */
"* & & & & & : 8 h h V / G i i ; + , f l u - $ # # > 6 w 5 & * 9 ",
"5 4 4 * * * & & : a M F } | c s ; - 8 m z y $ - # > 7 w 5 & : 9 ",
"w 9 w e e r r 0 8 8 i N ~ O.;.F s ; < z L j ; ; $ , 7 9 6 + & e ",
"5 5 9 e g b m C F G F c H ~ :.7.T s ; h L c 2 1 - 8 8 9 6 + : w ",
"* & & = : , u V ~ | :.;.~ K ^ :.4.I 3 , L I 1 3 1 a 8 e * + 7 w ",
"& & + = - > , y c I _ o.=.| L _ 4.:.N 8 c T i p s z u g : + 0 w ",
"& + + = - 8 a x B Z L ! ~ } ` L { 3.| a f ~ x x x c z g = - e e ",
"& & : > 8 y j N P ~ ( ` ` ` ` ` ! $.3.F u Q J N B B C z - q e w ",
"& & + & > y f c V Z F L _ | | ` X.{ 5...z ^ Q Z J J { a ; l e e ",
"& & = 7 f n F Q _ { @.&.X.| | ;.*.*.,.,.K _ #.V T ` } 1 z n v e ",
"* 7 f F ! ` X.X...X.&.,.5.i.g.9.0.d.g.r.] #. .V W X.K x V b v e ",
"b A G Y K L ~ _ X.*.2.e.g.f.E 2 @ 3 +.h.*.,.L L ^ _ I F n m t t ",
"A n u y a Z ~ } &.,.<.8.r.s         . ) u.*.W [ { _ L Z S b g f ",
"7 - - a c Y ` $.,.,.;.i.)             o 6.<.%.#.{ ~ K ^ F m f = ",
"+ = , j F ^ ..*.&.X.8.k.p               ' g.1.@.{ Q  .Q F z - : ",
"= - 8 M F _ ;.{ { 8.t.d.%               U g.2.*.&.*.] S l - = # ",
"+ , h z T &.! / 9.4.r.k.d             . X.y.,.2.5.Q V h y - = 8 ",
"- u q N { F Y s.7.$.4.z.+..           3 w.1.1.#.W M h u y 8 u 7 ",
"0 , f C z C 9.a.o.} 6.i.z.U X     . 3 0.p.w.%.[ S M j z z j 7 > ",
"> 7 V u y o.l.=.` ` s.8.j.d.8.' K { u.g.y.1.@.W S V M z u y > : ",
": f g - z 7.a.( ~ >.a.&.9.4.5.r.h.e.,.#. .[ Q L V j h u u y 8 : ",
"8 f > - C =.} I R q.7.} a.=.3.] 8.5. . .,.,.&.{ ^ Q W L S z q 6 ",
"q q + 8 G ! H H R a.-.~ a...e./ W <.&.Z M J Q _ _ L Z z u y : # ",
"f > # f D n s c I a.+.Y ;.o.q.;.L W *. .V s y 1 1 1 ; $ $ $ O O ",
"q & = g m f 8 k H a.O.H / O.=.a.} N H / ] G c a 2 $ @ $ $ O O O ",
"7 + > b v 7 , a k a.O.c B o.H q.4.Y j j G ..! N j s y > $ # = & ",
"- + > b g : > y i O.-.c i G H G :.o.H i i c / ..L V z u 0 7 7 9 ",
"= + 6 v t & - 8 - G o.H < j H s H o.} H s < < H ~ W m g r 0 9 6 ",
"+ + 9 t 0 * = , # l / N i ; j s i H ~ ! N h < ; - y l t t e e w ",
"O + 4 t 0 & & - + * G D h ; < s i < N H H j i > - & & 4 9 0 w 5 ",
"+ + 4 w 0 & & & & + r D r 8 - ; ; ; < z N h q > > 6 * * & * 4 4 ",
"+ O * w 0 * * : + & & l v e , - $ $ - = a c 8 7 6 : 5 5 4 * & & "
};
