/* XPM */
static char *alien32[] = {
/* columns rows colors chars-per-pixel */
"32 22 165 2 ",
"   c #010102",
".  c #050B0C",
"X  c #080C0E",
"o  c #0A0010",
"O  c #080E18",
"+  c #0B1A1A",
"@  c #181818",
"#  c #171717",
"$  c #0D0F0E",
"%  c #0D3200",
"&  c #0C260B",
"*  c #1D002E",
"=  c #1D0030",
"-  c #230537",
";  c #0F2324",
":  c #10212C",
">  c #1F2A25",
",  c #132836",
"<  c #2A2A2A",
"1  c #252525",
"2  c #223D22",
"3  c #2B343A",
"4  c #333333",
"5  c #3F3F3F",
"6  c #114500",
"7  c #134A00",
"8  c #134709",
"9  c #23401E",
"0  c #29581E",
"q  c #1C6F00",
"w  c #1F7800",
"e  c #217F00",
"r  c #30741E",
"t  c #1B4E2A",
"y  c #3F403F",
"u  c #215A39",
"i  c #20652A",
"p  c #270040",
"a  c #290043",
"s  c #43006E",
"d  c #450072",
"f  c #490077",
"g  c #620079",
"h  c #1E4A41",
"j  c #21475F",
"k  c #2E524F",
"l  c #295371",
"z  c #335F7B",
"x  c #2F4F66",
"c  c #2C6571",
"v  c #404040",
"b  c #555556",
"n  c #5A5A5B",
"m  c #485A66",
"M  c #496576",
"N  c #656565",
"B  c #686868",
"V  c #6B6F72",
"C  c #FD0005",
"Z  c #EE002B",
"A  c #F20020",
"S  c #DE575B",
"D  c #E66144",
"F  c #D84E6C",
"G  c #218100",
"H  c #248D00",
"J  c #269103",
"K  c #289B00",
"L  c #2DAB01",
"P  c #2EB000",
"I  c #31BA00",
"U  c #37D100",
"Y  c #36CD03",
"T  c #3FEF00",
"R  c #3FF000",
"E  c #4CDB1E",
"W  c #4AD41E",
"Q  c #47C71F",
"!  c #41F600",
"~  c #43FE00",
"^  c #4DE11E",
"/  c #42E225",
"(  c #FF8400",
")  c #E49447",
"_  c #56008E",
"`  c #550090",
"'  c #460282",
"]  c #6300A4",
"[  c #7A17BD",
"{  c #3C5995",
"}  c #38688A",
"|  c #356D95",
" . c #367491",
".. c #3A7BA5",
"X. c #4A5484",
"o. c #487999",
"O. c #4A6F86",
"+. c #6C7B8A",
"@. c #656AAE",
"#. c #002EFF",
"$. c #1227FF",
"%. c #2322FF",
"&. c #7600C1",
"*. c #530EEF",
"=. c #5412FF",
"-. c #571CFC",
";. c #7C08FF",
":. c #7052E4",
">. c #6D4CE8",
",. c #8F3287",
"<. c #802093",
"1. c #BE00A7",
"2. c #B60EB0",
"3. c #BA27B4",
"4. c #C4008D",
"5. c #C4349C",
"6. c #8D0DDE",
"7. c #8E11DD",
"8. c #851FC4",
"9. c #AE00CE",
"0. c #B300C9",
"q. c #AC00DC",
"w. c #B019D4",
"e. c #9322DA",
"r. c #953ACB",
"t. c #B621C5",
"y. c #8B09E1",
"u. c #8C08E8",
"i. c #901DE1",
"p. c #8A05FF",
"a. c #8506FC",
"s. c #9C00FE",
"d. c #9406F6",
"f. c #A601E2",
"g. c #9C40DF",
"h. c #8B68DE",
"j. c #A943EB",
"k. c #8476E4",
"l. c #3E81AC",
"z. c #5E8CAC",
"x. c #4186B3",
"c. c #438BB5",
"v. c #468EBD",
"b. c #4490B9",
"n. c #5A96BA",
"m. c #6C8DA2",
"M. c #6F91A7",
"N. c #4B99CB",
"B. c #4A93C2",
"V. c #549DCC",
"C. c #64A9D4",
"Z. c #6CADD6",
"A. c #77B1D6",
"S. c #9FACB4",
"D. c #A7A7A7",
"F. c #AAAAAA",
"G. c #B5B5B5",
"H. c #BCBCBC",
"J. c #92BFDC",
"K. c #89B6D3",
"L. c #B0CCDE",
"P. c #C2C2C2",
"I. c #D6D8DA",
"U. c #CFE2EE",
"Y. c None",
/* pixels */
"Y.Y.Y.Y.Y.Y.Y.Y.Y.Y.Y.Y..     .   .   X Y.Y.Y.Y.Y.Y.Y.Y.Y.Y.Y.Y.",
"Y.Y.Y.Y.Y.Y.Y.Y.Y.Y.Y.  l  .o.m.o.S.M.j   Y.Y.Y.Y.Y.Y.Y.Y.Y.Y.Y.",
"Y.Y.Y.Y.Y.Y.Y.Y.Y.3 K.z c.| } Z.N.+.z...O.I.< Y.Y.Y.Y.Y.Y.Y.Y.Y.",
"Y.Y.Y.Y.Y.Y.Y.Y.4 M A.V.| u i } b.i k ..Z.L.V 4 Y.Y.Y.Y.Y.Y.Y.Y.",
"Y.Y.Y.Y.Y.Y.Y.  m J.N.l.2 L P +  ./ G h l.V.U.b   Y.Y.Y.Y.Y.Y.Y.",
"Y.Y.Y.Y.Y.Y.Y.X x Z.l.; L ! P . & Y ! J , B.J.k . Y.Y.Y.Y.Y.Y.Y.",
"Y.Y.Y.Y.Y.Y.  M V.V.l.+ I R T U U R ~ J : v.V.c.j   Y.Y.Y.Y.Y.Y.",
"Y.Y.Y.Y.      O.C.N.l.+ I L J ~ R G Y K : v.N.A.M       Y.Y.Y.Y.",
"Y.Y.Y.a d d d @.C.l.j + I w 7 ~ T % J L + l B.Z.@.s s s * Y.Y.Y.",
"Y.a a _ s.s.s.k.n.c 6 7 K e G ~ R q H J 6 8 c l.:.s.s.s.f a - Y.",
"o &.s.d.s.q.q.h.X.2 W W 9 r E ^ ^ E 0 0 E Q 1 { >.p.p.s.s.s.]   ",
"o [ s.s.9.Z A 2.u.y.i.i.y.7.e.e.e.e.y.y.i.i.y.d.-.$.%.p.s.s.]   ",
"Y.a a ` 0.C C 1.s.s.s.s.s.5.D D D D 3.s.s.s.s.s.=.#.$.p.d a - Y.",
"Y.Y.Y.a g 4.4.9.s.s.s.s.s.t.S ( ( F w.s.s.s.s.s.a.=.*.' * Y.Y.Y.",
"Y.Y.Y.Y.= g.j.[ ] ] ] ] ] ] ,.) ) [ ] ] ] ] ] ] 8.j.r.O Y.Y.Y.Y.",
"Y.Y.Y.Y.< G.L.5             v H.F.<             n P.D.@ Y.Y.Y.Y.",
"Y.Y.Y.Y.< G.H.5   Y.Y.Y.Y.  5 H.G.<   Y.Y.Y.Y.  b P.D.@ Y.Y.Y.Y.",
"Y.Y.Y.Y.< G.H.5   Y.Y.Y.Y.Y.5 H.G.9 Y.Y.Y.Y.Y.  b P.D.@ Y.Y.Y.Y.",
"Y.Y.Y.Y.< G.P.5   Y.Y.Y.Y.Y.5 P.H.< Y.Y.Y.Y.Y.  n P.F.@ Y.Y.Y.Y.",
"Y.Y.Y.Y.1 N N 4 Y.Y.Y.Y.Y.Y.4 B N 1 Y.Y.Y.Y.Y.Y.v B N # Y.Y.Y.Y.",
"Y.Y.Y.Y.Y.    Y.Y.Y.Y.Y.Y.Y.Y.    Y.Y.Y.Y.Y.Y.Y.Y.    Y.Y.Y.Y.Y.",
"Y.Y.Y.Y.Y.Y.Y.Y.Y.Y.Y.Y.Y.Y.Y.Y.Y.Y.Y.Y.Y.Y.Y.Y.Y.Y.Y.Y.Y.Y.Y.Y."
};
