/* XPM */
static char *fire32[] = {
/* columns rows colors chars-per-pixel */
"32 32 153 2 ",
"   c #5CB035",
".  c #5EB336",
"X  c #62BC39",
"o  c #63BD39",
"O  c #68C73D",
"+  c #6BCD3E",
"@  c #6DD03F",
"#  c #6ED240",
"$  c #6FD440",
"%  c #71D942",
"&  c #72DA43",
"*  c #72DB43",
"=  c #73DC43",
"-  c #84B347",
";  c #8EC04D",
":  c #91C54E",
">  c #92C54E",
",  c #93C64F",
"<  c #96CB51",
"1  c #98CD52",
"2  c #98CE52",
"3  c #99D053",
"4  c #9DD655",
"5  c #A0CE57",
"6  c #A1D957",
"7  c #A1DA57",
"8  c #A3DD57",
"9  c #A3DD58",
"0  c #A4DD58",
"q  c #A5DF59",
"w  c #A6E059",
"e  c #A6E159",
"r  c #A7E15A",
"t  c #A8E35A",
"y  c #A8E45B",
"u  c #A9E55B",
"i  c #AAE55B",
"p  c #AAE65B",
"a  c #ABE75C",
"s  c #ACE55D",
"d  c #ACE65D",
"f  c #ACE75D",
"g  c #ADE75D",
"h  c #ADE75E",
"j  c #AFE65F",
"k  c #ABE85C",
"l  c #ACE85C",
"z  c #ADC362",
"x  c #B8C66E",
"c  c #B2DF62",
"v  c #B3E761",
"b  c #B9E066",
"n  c #B3E861",
"m  c #B3E862",
"M  c #B3E962",
"N  c #B4E862",
"B  c #B5E862",
"V  c #B6E863",
"C  c #B7E864",
"Z  c #BAE866",
"A  c #BBE966",
"S  c #BBE867",
"D  c #BDE568",
"F  c #BDE868",
"G  c #CDDD7B",
"H  c #C2E66C",
"J  c #C3E66C",
"K  c #C3E96C",
"L  c #C4E96D",
"P  c #C6E96E",
"I  c #C6EA6E",
"U  c #C7E271",
"Y  c #CAE771",
"T  c #CEE677",
"R  c #CAE971",
"E  c #C8EA70",
"W  c #CAEA71",
"Q  c #CBEA71",
"!  c #CCEA72",
"~  c #CDEA72",
"^  c #CCEA73",
"/  c #CDEA73",
"(  c #CEEA74",
")  c #CFEB75",
"_  c #D0EB76",
"`  c #D0EB77",
"'  c #D1EB78",
"]  c #D3EB7A",
"[  c #D4EC7B",
"{  c #D5EC7C",
"}  c #D7EC7E",
"|  c #D7EC7F",
" . c #D8EC7F",
".. c #D8EA80",
"X. c #D9EC80",
"o. c #D9ED80",
"O. c #DAED81",
"+. c #DAED82",
"@. c #DBED83",
"#. c #DCED83",
"$. c #DCED84",
"%. c #DCED85",
"&. c #DDEE85",
"*. c #DEED87",
"=. c #DEEE87",
"-. c #DEEE88",
";. c #DEEE89",
":. c #DFEE89",
">. c #DFEE8A",
",. c #DDE98D",
"<. c #DFED8D",
"1. c #E0EE8C",
"2. c #E2EF90",
"3. c #E4EF94",
"4. c #E4EB9A",
"5. c #E6EF9C",
"6. c #E8EF9D",
"7. c #E7F099",
"8. c #E7F09A",
"9. c #E8F09B",
"0. c #EAF19E",
"q. c #DEDBB8",
"w. c #E7EFA1",
"e. c #E8EFA8",
"r. c #EBF1A0",
"t. c #EAF0A7",
"y. c #EDF1A9",
"u. c #ECF0AD",
"i. c #EEF1AC",
"p. c #EEF0B2",
"a. c #F0F1B4",
"s. c #F0F1B5",
"d. c #F1F1BA",
"f. c #F2F1BD",
"g. c #F2F1BE",
"h. c #F5F1CA",
"j. c #F6F2CF",
"k. c #EEE5D7",
"l. c #F4EFD0",
"z. c #F6F2D0",
"x. c #F7F2D1",
"c. c #F8F2D7",
"v. c #FAF2DC",
"b. c #FAF2DE",
"n. c #FAF2DF",
"m. c #F9F0E0",
"M. c #FAF2E0",
"N. c #FBF2E0",
"B. c #FBF2E1",
"V. c #FBF2E2",
"C. c #FBF2E3",
"Z. c #FCF3E3",
"A. c None",
/* pixels */
"A.A.A.A.A.A.A.A.A.A.A.A.A.A.A.A.A.A.A.A.A.A.A.A.A.A.A.A.A.A.A.A.",
"A.A.A.A.A.A.A.A.A.A.A.A.A.A.A.A.A.A.A.A.A.A.A.A.A.A.A.A.A.A.A.A.",
"A.A.A.A.A.A.A.A.A.A.A.A.A.A.A.A.A.A.A.A.A.A.A.A.A.A.A.A.A.A.A.A.",
"A.A.A.A.A.A.A.A.A.A.A.A.A.A.A.A.A.A.A.A.A.A.A.A.A.A.A.A.A.A.A.A.",
"A.A.A.A.A.A.A.A.A.A.A.A.A.A.A.A.A.A.A.A.A.A.A.A.A.A.A.A.A.A.A.A.",
"A.A.A.A.A.A.A.A.A.A.A.A.. A.A.A.A.A.A.A.A.A.A.A.A.A.A.A.A.A.A.A.",
"A.A.A.A.A.A.A.A.A.A.A.A.A.A.A.A.A.A.A.A.A.A.A.A.A.A.A.A.A.A.A.A.",
"A.A.A.A.A.A.A.A.A.A.A.A.A.A.A.A.A.A.A.A.A.A.A.A.A.A.A.A.A.A.A.A.",
"A.A.A.A.A.A.A.A.A.A.A.A.A.A.r A.A.A.A.A.A.A.A.A.A.A.A.A.A.A.A.A.",
"A.A.A.A.A.A.A.A.+ A.A.A.A.A.6 w A.A.A.A.A.A.A.A.A.A.A.A.A.A.A.A.",
"A.A.A.A.A.A.A.A.A.O A.A.A.A.i i A.A.A.A.A.A.A.A.A.A.A.A.A.A.A.A.",
"A.A.A.A.A.A.A.A.A.X & A.A.A.7 l u A.A.A.A.A.A.A.A.A.A.A.A.A.A.A.",
"A.A.A.A.A.A.A.A.A.@ * A.A.> p f f u A.A.A.A.A.A.A.A.A.A.A.A.A.A.",
"A.A.A.A.A.A.A.A.o % A.A.A.0 a m S f t A.A.A.A.A.A.A.A.A.A.A.A.A.",
"A.A.A.A.A.A.A.A.$ = A.A.A.w a C Q A y A.A.A.A.A.  A.A.A.A.A.A.A.",
"A.A.A.A.A.A.A.A.A.# A.A.2 k g K / L d 0 A.A.A.A.A.A.A.A.A.A.A.A.",
"A.A.A.A.A.A.A.A.A.A.A.A.a a V Q ( ^ v 9 A.A.; A.A.A.A.A.A.A.A.A.",
"A.A.A.A.A.A.A.A.A.A.A.3 a n I ! ' _ N 8 A.: w A.A.A.A.A.A.A.A.A.",
"A.A.A.A.A.A.A.A.A.A.- e n I ! / } ` B 4 , s A.A.A.A.A.A.A.A.A.A.",
"A.A.A.A.A.A.A.A.A.A.q M I ! ^ [ @.` N j F D A.A.A.A.A.A.A.A.A.A.",
"A.A.A.A.A.A.A.A.A.1 M I ! ^ [ #.O.( Z L _ H A.A.A.A.A.A.A.A.A.A.",
"A.A.A.A.A.A.A.A.< n I ! ^ [ @.%.| ! W ]  .J A.A.A.A.A.A.A.A.A.A.",
"A.A.A.A.A.A.A.> h L ~ ^ [ @.%.%.X.` } @.X.R c A.A.A.A.A.A.A.A.A.",
"A.A.A.A.A.A.A.y C Q / [ @.$.1.2.$.O.$.>.@.` b A.A.A.A.A.A.A.A.A.",
"A.A.A.A.A.A.A.g K ~ ] @.$.;.8.0.w.e.5.8.:. .U A.A.A.A.A.A.A.A.A.",
"A.A.A.A.A.A.A.h P ) +.$.-.9.i.d.a.h.z.y.7.=.T A.A.A.A.A.A.A.A.A.",
"A.A.A.A.A.A.A.5 E { $.*.9.f.c.B.j.x.B.a.r.<.A.A.A.A.A.A.A.A.A.A.",
"A.A.A.A.A.A.A.A.Y o.$.3.g.b.C.V.V.V.B.s.6.,.A.A.A.A.A.A.A.A.A.A.",
"A.A.A.A.A.A.A.A.z ..&.u.n.C.V.V.V.V.N.p.4.A.A.A.A.A.A.A.A.A.A.A.",
"A.A.A.A.A.A.A.A.A.x G t.v.C.V.V.V.M.l.A.A.A.A.A.A.A.A.A.A.A.A.A.",
"A.A.A.A.A.A.A.A.A.A.A.A.q.k.Z.m.A.A.A.A.A.A.A.A.A.A.A.A.A.A.A.A.",
"A.A.A.A.A.A.A.A.A.A.A.A.A.A.A.A.A.A.A.A.A.A.A.A.A.A.A.A.A.A.A.A."
};
